<mxfile host="app.diagrams.net" modified="2023-09-21T18:56:02.757Z" agent="Mozilla/5.0 (X11; Linux x86_64; rv:109.0) Gecko/20100101 Firefox/114.0" version="21.8.0" etag="S1LiaxMeP4t_A2mXkMiO" type="github">
  <diagram name="Page-1" id="2SX8KOirbi2WI7tuvpMF">
    <mxGraphModel>
      <root>
        <mxCell id="0" />
        <mxCell id="1" parent="0" />
      </root>
    </mxGraphModel>
  </diagram>
</mxfile>
